<svg width="392" height="306" viewBox="0 0 392 306" fill="none" xmlns="http://www.w3.org/2000/svg">
<path d="M199.268 265.212L192.59 267.411L194.788 274.105L201.465 271.902L199.268 265.212Z" fill="#00B2BF"/>
<path d="M171.93 259.055H171.659L160.569 254.9C160.486 254.864 160.411 254.813 160.348 254.748C160.285 254.683 160.235 254.607 160.202 254.523C160.168 254.439 160.152 254.349 160.153 254.258C160.154 254.168 160.173 254.079 160.208 253.995C160.244 253.912 160.296 253.837 160.36 253.774C160.425 253.711 160.501 253.661 160.585 253.627C160.669 253.594 160.758 253.577 160.849 253.578C160.939 253.579 161.028 253.598 161.111 253.634L172.201 257.789C172.289 257.818 172.369 257.866 172.436 257.93C172.504 257.994 172.556 258.072 172.59 258.158C172.625 258.244 172.64 258.337 172.634 258.43C172.629 258.523 172.604 258.613 172.56 258.695C172.493 258.803 172.401 258.892 172.291 258.955C172.181 259.018 172.057 259.052 171.93 259.055Z" fill="#2B2B2B"/>
<path d="M171.93 263.935H162.645C162.55 263.936 162.455 263.918 162.367 263.883C162.279 263.847 162.199 263.794 162.132 263.726C162.064 263.659 162.011 263.578 161.976 263.49C161.94 263.402 161.922 263.307 161.923 263.212C161.917 263.115 161.931 263.018 161.965 262.928C161.999 262.837 162.052 262.755 162.12 262.686C162.189 262.618 162.271 262.565 162.361 262.531C162.452 262.497 162.548 262.482 162.645 262.489H171.93C172.121 262.489 172.305 262.565 172.44 262.701C172.575 262.836 172.651 263.02 172.651 263.212C172.651 263.404 172.575 263.587 172.44 263.723C172.305 263.859 172.121 263.935 171.93 263.935Z" fill="#2B2B2B"/>
<path d="M175.103 245.432C174.664 245.498 174.22 245.532 173.776 245.534C173.396 245.551 173.024 245.43 172.726 245.195C169.244 256.668 162.984 267.098 154.504 275.557C140.234 289.864 122.463 298.021 104.462 298.527C85.2615 299.066 66.9112 291.124 51.3851 275.557C44.6138 268.77 39.2425 260.713 35.5779 251.845C31.9134 242.978 30.0272 233.473 30.0272 223.875C30.0272 214.277 31.9134 204.772 35.5779 195.905C39.2425 187.037 44.6138 178.98 51.3851 172.193C63.6299 159.919 81.9361 152.614 101.61 152.166C102.267 152.166 102.921 152.143 103.575 152.143C107.127 152.142 110.676 152.378 114.197 152.849C113.984 151.927 113.825 150.993 113.723 150.052C109.685 149.554 105.617 149.353 101.55 149.451C81.1844 149.929 62.2008 157.523 49.4684 170.285C35.2862 184.502 27.3188 203.784 27.3188 223.889C27.3188 243.994 35.2862 263.275 49.4684 277.492C65.0284 293.055 83.3618 301.252 102.616 301.252C103.253 301.252 103.893 301.252 104.533 301.225C123.225 300.702 141.65 292.261 156.414 277.465C165.297 268.601 171.83 257.653 175.421 245.616L175.103 245.432Z" fill="#2B2B2B"/>
<path d="M109.148 225.026L71.5268 192.25C71.3732 192.115 71.1842 192.028 70.9823 191.998C70.7805 191.969 70.5745 191.998 70.3889 192.083C70.2034 192.168 70.0462 192.305 69.9363 192.477C69.8264 192.649 69.7684 192.85 69.7693 193.054V258.606C69.7684 258.81 69.8264 259.011 69.9363 259.183C70.0462 259.355 70.2034 259.492 70.3889 259.577C70.5745 259.662 70.7805 259.691 70.9823 259.662C71.1842 259.632 71.3732 259.545 71.5268 259.41L109.148 226.634C109.263 226.534 109.354 226.41 109.417 226.272C109.48 226.133 109.512 225.982 109.512 225.83C109.512 225.678 109.48 225.527 109.417 225.388C109.354 225.25 109.263 225.126 109.148 225.026Z" fill="#2880A8"/>
<path d="M133.289 208.549C133.061 208.331 132.901 208.05 132.829 207.742C131.228 206.24 129.881 204.489 128.84 202.555C128.501 202.165 128.162 201.771 127.824 201.37C126.947 200.354 126.154 199.268 125.453 198.122L94.5737 225.026C94.4594 225.126 94.3678 225.25 94.305 225.388C94.2422 225.527 94.2097 225.678 94.2097 225.83C94.2097 225.982 94.2422 226.133 94.305 226.272C94.3678 226.41 94.4594 226.534 94.5737 226.634L132.195 259.41C132.349 259.545 132.538 259.632 132.74 259.662C132.942 259.691 133.148 259.662 133.333 259.577C133.519 259.492 133.676 259.355 133.786 259.183C133.896 259.011 133.954 258.81 133.953 258.606V209.201L133.289 208.549Z" fill="#2880A8" stroke="white" stroke-width="5" stroke-miterlimit="10"/>
<path d="M358.443 133.314C358.105 116.757 354.078 100.545 346.49 85.1317C339.379 70.699 329.501 57.6206 317.124 46.2564C305.288 35.3829 291.652 26.6613 276.827 20.4832C262.032 14.3972 246.52 11.3355 231.959 11.6376C215.678 11.9622 199.622 15.5012 184.707 22.0522C169.792 28.6032 156.313 38.0375 145.039 49.8155C133.766 61.5934 124.919 75.4839 119.007 90.6922C113.094 105.9 110.231 122.128 110.581 138.447C111.349 175.784 124.563 207.178 148.791 229.211C170.802 249.238 200.94 260.15 233.957 260.15C234.993 260.15 236.031 260.14 237.072 260.12C253.644 259.809 269.983 256.148 285.11 249.356C288.133 247.999 291.088 246.528 293.975 244.944C292.709 245.083 291.476 244.798 290.142 244.828C289.76 244.848 289.384 244.728 289.085 244.489C272.914 252.654 255.118 257.069 237.014 257.408C235.999 257.428 234.983 257.438 233.967 257.438C201.631 257.438 172.13 246.76 150.623 227.202C126.96 205.685 114.052 174.976 113.3 138.392C112.633 106.165 124.764 74.9922 147.026 51.7306C169.287 28.4689 199.855 15.0239 232.006 14.353C232.646 14.353 233.283 14.3327 233.923 14.3327C247.553 14.3327 261.988 17.3163 275.791 22.995C290.323 29.0519 303.691 37.6011 315.295 48.259C327.425 59.3925 337.103 72.2027 344.058 86.3333C351.474 101.387 355.399 117.222 355.734 133.369C356.413 162.466 346.574 190.829 328.031 213.227C328.515 214.045 329.101 214.799 329.579 215.603C348.846 192.589 359.106 163.335 358.443 133.297V133.314Z" fill="#2B2B2B"/>
<path fill-rule="evenodd" clip-rule="evenodd" d="M276.942 181.534H315.546C315.61 179.945 315.668 178.36 315.668 176.755C315.668 112.021 263.245 59.3515 198.78 59.2734V97.9994C242.036 98.0266 277.095 133.321 277.095 176.748C277.101 178.36 277.037 179.952 276.942 181.534Z" fill="#65A300"/>
<path d="M209.006 199.524C216.441 199.524 223.708 197.314 229.889 193.174C236.07 189.034 240.888 183.15 243.733 176.265C246.578 169.381 247.322 161.805 245.872 154.497C244.422 147.188 240.842 140.475 235.585 135.205C230.328 129.936 223.631 126.348 216.34 124.894C209.048 123.44 201.491 124.186 194.622 127.038C187.754 129.89 181.884 134.719 177.753 140.915C173.623 147.111 171.419 154.395 171.419 161.847C171.419 171.84 175.379 181.423 182.428 188.489C189.477 195.555 199.038 199.524 209.006 199.524Z" fill="#65A300"/>
<path d="M309.088 253.582C304.585 253.582 299.722 252.184 294.639 249.387C290.038 246.808 285.82 243.595 282.11 239.842L281.287 238.973L325.701 208.872L326.277 209.67C326.616 210.125 334.336 220.997 332.254 233.091C331.103 239.767 327.174 245.466 320.544 250.025C317.185 252.371 313.182 253.614 309.088 253.582ZM284.426 239.292C287.806 242.532 291.58 245.331 295.658 247.625C304.801 252.649 312.8 252.886 319.362 248.335C325.519 244.098 329.183 238.847 330.226 232.721C331.851 223.288 326.839 214.368 325.146 211.676L284.426 239.292Z" fill="#2B2B2B"/>
<path d="M94.3941 84.6833C92.7027 84.682 91.0496 84.178 89.6438 83.235C88.238 82.2921 87.1427 80.9525 86.4963 79.3857C85.85 77.8189 85.6815 76.0951 86.0124 74.4324C86.3432 72.7696 87.1584 71.2425 88.3549 70.044C89.5514 68.8456 91.0756 68.0297 92.7347 67.6994C94.3938 67.3691 96.1133 67.5393 97.6759 68.1885C99.2385 68.8376 100.574 69.9366 101.514 71.3464C102.453 72.7563 102.955 74.4137 102.955 76.1092C102.939 78.3795 102.031 80.552 100.429 82.1567C98.8271 83.7614 96.659 84.6691 94.3941 84.6833ZM94.3941 69.2527C93.0403 69.252 91.7167 69.6539 90.5907 70.4074C89.4648 71.1609 88.5871 72.2322 88.0687 73.4859C87.5503 74.7395 87.4144 76.1191 87.6784 77.4501C87.9424 78.7811 88.5942 80.0038 89.5516 80.9634C90.5089 81.9229 91.7286 82.5764 93.0565 82.8409C94.3843 83.1055 95.7606 82.9694 97.0113 82.4498C98.262 81.9301 99.3308 81.0503 100.083 79.9217C100.834 78.7931 101.235 77.4663 101.234 76.1092C101.229 74.2924 100.507 72.5516 99.2251 71.2669C97.9434 69.9822 96.2067 69.2581 94.3941 69.2527Z" fill="#2B2B2B"/>
<path d="M299.698 252.652C299.698 254.156 299.253 255.626 298.419 256.877C297.586 258.127 296.401 259.102 295.015 259.677C293.628 260.252 292.103 260.403 290.632 260.109C289.16 259.815 287.809 259.091 286.748 258.027C285.687 256.964 284.965 255.608 284.673 254.133C284.38 252.658 284.531 251.129 285.106 249.74C285.68 248.351 286.653 247.164 287.901 246.329C289.149 245.494 290.616 245.048 292.116 245.049C296.312 245.049 299.698 247.476 299.698 252.652Z" fill="#2B2B2B"/>
<path d="M102.616 111.763C102.344 111.761 102.079 111.675 101.857 111.516C101.635 111.358 101.468 111.135 101.377 110.877C101.295 110.525 101.339 110.154 101.5 109.83C101.662 109.506 101.93 109.249 102.26 109.102L127.759 100.409C128.108 100.305 128.484 100.341 128.807 100.509C129.129 100.677 129.374 100.965 129.49 101.311C129.605 101.657 129.581 102.034 129.424 102.363C129.267 102.692 128.988 102.947 128.646 103.074L103.148 111.767L102.616 111.763Z" fill="#2B2B2B"/>
<path d="M351.749 61.7682L389.221 63.9439L371.091 29.9463L351.749 61.7682Z" fill="#65A300"/>
<path d="M328.366 53.8594L340.957 57.342L344.431 44.7219L331.837 41.2461L328.366 53.8594Z" fill="#65A300"/>
<path d="M353.384 186.242C358.229 186.243 362.966 184.803 366.995 182.105C371.024 179.407 374.164 175.573 376.019 171.086C377.873 166.599 378.359 161.661 377.413 156.898C376.468 152.134 374.135 147.759 370.709 144.325C367.283 140.89 362.918 138.552 358.166 137.604C353.414 136.657 348.488 137.144 344.012 139.003C339.535 140.861 335.71 144.009 333.018 148.048C330.327 152.086 328.89 156.834 328.891 161.691C328.891 164.915 329.525 168.108 330.756 171.086C331.986 174.065 333.791 176.771 336.065 179.051C338.339 181.331 341.039 183.139 344.011 184.373C346.983 185.607 350.168 186.242 353.384 186.242Z" fill="#6045AF"/>
<path d="M332.206 12.3814C372.73 33.7216 388.341 84.0324 367.051 124.652C366.983 124.787 366.889 124.907 366.774 125.005C366.659 125.102 366.525 125.176 366.381 125.222C366.238 125.267 366.086 125.283 365.936 125.27C365.786 125.256 365.64 125.212 365.507 125.141C365.364 125.082 365.235 124.991 365.13 124.876C365.026 124.761 364.947 124.624 364.901 124.476C364.855 124.327 364.842 124.17 364.863 124.016C364.884 123.862 364.939 123.714 365.023 123.583C385.784 83.9747 370.441 34.9639 331.072 14.2245C319.421 8.11576 306.47 4.91925 293.322 4.90708C293.04 4.90978 292.77 4.80044 292.569 4.60311C292.368 4.40577 292.254 4.13661 292.252 3.85484C292.249 3.57306 292.358 3.30176 292.555 3.10061C292.752 2.89945 293.02 2.78493 293.301 2.78223C306.724 2.86708 320.27 6.0951 332.206 12.3814Z" fill="#2B2B2B"/>
<path d="M339.798 48.4454L340.035 48.6219C351.166 62.3432 356.487 79.8912 354.857 97.5003C354.843 97.6432 354.801 97.7817 354.732 97.9076C354.663 98.0334 354.569 98.144 354.457 98.2326C354.344 98.3212 354.214 98.3859 354.076 98.423C353.938 98.4601 353.793 98.4686 353.652 98.4482C353.51 98.4278 353.374 98.3788 353.251 98.3041C353.129 98.2295 353.023 98.1308 352.94 98.014C352.857 97.8972 352.798 97.7646 352.767 97.6244C352.736 97.4842 352.734 97.3392 352.761 97.1982C354.407 80.1858 349.06 62.9935 338.376 49.888C338.289 49.7807 338.225 49.6567 338.187 49.5237C338.149 49.3906 338.139 49.2512 338.156 49.1139C338.174 48.9767 338.22 48.8445 338.29 48.7255C338.36 48.6065 338.454 48.5031 338.566 48.4216C338.75 48.3 338.966 48.2372 339.186 48.2414C339.406 48.2457 339.62 48.3168 339.798 48.4454Z" fill="#2B2B2B"/>
<path d="M73.5652 303.914L65.8411 284.02L86.3417 285.812L73.5652 303.914Z" fill="#178176"/>
<path d="M27.962 227.314C32.8072 227.315 37.5438 225.875 41.5728 223.178C45.6017 220.48 48.742 216.645 50.5965 212.158C52.451 207.671 52.9364 202.734 51.9913 197.97C51.0462 193.207 48.7131 188.831 45.287 185.397C41.8609 181.963 37.4957 179.624 32.7436 178.677C27.9914 177.729 23.0657 178.216 18.5895 180.075C14.1132 181.934 10.2874 185.082 7.59597 189.12C4.90453 193.159 3.46832 197.906 3.46899 202.763C3.46899 209.274 6.0495 215.519 10.6428 220.123C15.2362 224.728 21.4661 227.314 27.962 227.314Z" fill="#082558"/>
<path d="M47.4942 287.21L47.4468 287.336L39.7972 297.464C39.7218 297.571 39.6071 297.643 39.4785 297.665C39.3499 297.687 39.2179 297.657 39.1115 297.581C39.005 297.506 38.933 297.391 38.911 297.262C38.8891 297.133 38.9192 297.001 38.9946 296.894L46.6477 286.759C46.6844 286.706 46.7312 286.662 46.7852 286.628C46.8392 286.593 46.8994 286.57 46.9623 286.56C47.0253 286.549 47.0897 286.551 47.1519 286.565C47.2142 286.579 47.273 286.606 47.3249 286.643C47.4081 286.708 47.4691 286.798 47.4994 286.9C47.5297 287.001 47.5279 287.11 47.4942 287.21Z" fill="#2B2B2B"/>
</svg>
